[Header]
FileType HTR
DataType HTRS
FileVersion 1
NumSegments 22
NumFrames 4
DataFrameRate 24
EulerRotationOrder ZYX
CalibrationUnits mm
RotationUnits Degrees
GlobalAxisofGravity Y
BoneLengthAxis Y
ScaleFactor 1.0
[SegmentNames&Hierarchy]
reference	GLOBAL
Hips	reference
Spine	Hips
Spine1	Spine
Neck	Spine1
Head	Neck
LeftShoulder	Spine1
LeftArm	LeftShoulder
LeftForeArm	LeftArm
LeftHand	LeftForeArm
RightShoulder	Spine1
RightArm	RightShoulder
RightForeArm	RightArm
RightHand	RightForeArm
LeftUpLeg	Hips
LeftLeg	LeftUpLeg
LeftFoot	LeftLeg
LeftToeBase	LeftFoot
RightUpLeg	Hips
RightLeg	RightUpLeg
RightFoot	RightLeg
RightToeBase	RightFoot
[BasePosition]
reference	0	0	0	0	0	0	1
Hips	0	0	0	0	0	0	1
Spine	0	0	0	-0	-90	0	1
Spine1	0	0	0	0	0	0	1
Neck	0	0	0	82.64767223	-82.64767223	-90	1
Head	0	0	0	-0	-90	0	1
LeftShoulder	0	0	0	0	0	0	1
LeftArm	0	0	0	0	0	0	1
LeftForeArm	0	0	0	0	0	0	1
LeftHand	0	0	0	0	0	0	1
RightShoulder	0	0	0	0	-0	180	1
RightArm	0	0	0	0	-0	180	1
RightForeArm	0	0	0	0	-0	180	1
RightHand	0	0	0	0	-0	180	1
LeftUpLeg	0	0	0	-0	90	0	1
LeftLeg	0	0	0	-0	90	0	1
LeftFoot	0	0	0	-23.42853957	23.42853957	-90	1
LeftToeBase	0	0	0	0	-0	-90	1
RightUpLeg	0	0	0	-0	90	0	1
RightLeg	0	0	0	-0	90	0	1
RightFoot	0	0	0	-23.42853957	23.42853957	-90	1
RightToeBase	0	0	0	0	-0	-90	1
[reference]
30	0	0	0	0	-0	0	1.0
31	0	0	0	0	-0	0	1.0
32	0	0	0	0	-0	0	1.0
33	0	0	0	0	-0	0	1.0
[Hips]
30	-1.758684039	-0.2981942296	8.460079193	3.257553577	3.509541035	-97.44103241	1.0
31	-1.830410719	-0.2676374912	8.46468544	2.567325115	3.561628342	-98.42668152	1.0
32	-1.905720353	-0.2073509246	8.441993713	1.8200562	3.493741989	-98.83731079	1.0
33	-1.936334252	-0.1806063056	8.371049881	1.416467071	3.4536798	-98.49365234	1.0
[Spine]
30	0	0	0.7457100153	-131.4626312	94.25708771	-120.5542603	1.0
31	0	0	0.7457100153	-114.4868317	93.69003296	-104.3770142	1.0
32	0	0	0.7457100153	-102.1010361	92.52661133	-92.86569977	1.0
33	0	0	0.7457100153	-107.3561859	91.86373138	-98.10779572	1.0
[Spine1]
30	0	0	2.140589952	5.700586796	4.173330307	1.386974573	1.0
31	0	0	2.140589952	4.613367558	2.251553297	1.22118938	1.0
32	0	0	2.140589952	3.709573269	1.041323781	0.8765088916	1.0
33	0	0	2.140589952	5.005756855	1.568277597	0.6799088717	1.0
[Neck]
30	0	0	2.32246995	49.71252823	79.39912415	49.28755188	1.0
31	0	0	2.32246995	56.30724716	79.88876343	53.78541183	1.0
32	0	0	2.32246995	60.57750702	80.02229309	55.92027664	1.0
33	0	0	2.32246995	57.03569031	79.52832031	53.22998047	1.0
[Head]
30	0	-0.1818799973	1.409579992	-18.3710556	96.7641983	-16.43104744	1.0
31	0	-0.1818799973	1.409579992	-24.00072861	95.6234436	-19.81962967	1.0
32	0	-0.1818799973	1.409579992	-30.06074715	94.54745483	-23.53297234	1.0
33	0	-0.1818799973	1.409579992	-29.39744568	95.16285706	-23.14920044	1.0
[LeftShoulder]
30	0.3668199778	0.02662999928	1.946700096	-11.84560871	-8.742925644	-7.517551899	1.0
31	0.3668199778	0.02662999928	1.946700096	-9.932881355	-7.710168362	-6.628212929	1.0
32	0.3668199778	0.02662999928	1.946700096	-8.495006561	-6.720172405	-5.376404762	1.0
33	0.3668199778	0.02662999928	1.946700096	-9.529268265	-6.675801277	-4.505544662	1.0
[LeftArm]
30	1.140689969	0	0	7.33391571	60.43980408	-31.17026901	1.0
31	1.140689969	0	0	14.99685669	64.23881531	-18.43536949	1.0
32	1.140689969	0	0	25.92140579	67.77142334	-1.979401231	1.0
33	1.140689969	0	0	32.98206329	68.54004669	8.476575851	1.0
[LeftForeArm]
30	2.749800205	0	0	10.37535858	-30.95235252	-86.98113251	1.0
31	2.749800205	0	0	9.65958786	-28.76677704	-86.90778351	1.0
32	2.749800205	0	0	7.23701334	-25.31553459	-83.86016846	1.0
33	2.749800205	0	0	1.000192523	-20.03512573	-77.09114838	1.0
[LeftHand]
30	2.295179844	0	0	-18.35783386	-7.221180916	-11.0415163	1.0
31	2.295179844	0	0	-17.01358795	-6.710864067	-11.20969391	1.0
32	2.295179844	0	0	-14.91994095	-6.152431488	-11.5505724	1.0
33	2.295179844	0	0	-14.26087284	-7.720753193	-11.27026653	1.0
[RightShoulder]
30	-0.3601199985	0.02662999928	1.946700096	-10.37716293	5.586514473	-172.0824432	1.0
31	-0.3601199985	0.02662999928	1.946700096	-9.217862129	4.609750748	-172.1667023	1.0
32	-0.3601199985	0.02662999928	1.946700096	-8.574466705	3.091927528	-172.9401245	1.0
33	-0.3601199985	0.02662999928	1.946700096	-8.787959099	2.892846346	-173.529953	1.0
[RightArm]
30	-1.140689969	0	0	-174.6581421	-116.1608582	22.6026535	1.0
31	-1.140689969	0	0	-170.651474	-114.1380615	16.82886887	1.0
32	-1.140689969	0	0	-164.6891479	-111.8327866	9.792404175	1.0
33	-1.140689969	0	0	-158.9179077	-109.6914673	3.948043823	1.0
[RightForeArm]
30	-2.749800205	0	0	28.31757355	43.35954666	-99.49421692	1.0
31	-2.749800205	0	0	25.48190689	37.89012909	-99.25020599	1.0
32	-2.749800205	0	0	20.69504356	30.68147278	-101.6894455	1.0
33	-2.749800205	0	0	17.01840973	26.08851051	-106.277153	1.0
[RightHand]
30	-2.295179844	0	0	-7.720045567	11.07158947	-168.0356293	1.0
31	-2.295179844	0	0	-5.941735744	11.18439484	-168.1141052	1.0
32	-2.295179844	0	0	-3.254583359	10.91266441	-167.2726288	1.0
33	-2.295179844	0	0	-1.371059656	11.17979145	-166.5466766	1.0
[LeftUpLeg]
30	0.9094099998	0	0	84.6505127	-96.6566925	-83.88368225	1.0
31	0.9094099998	0	0	80.173172	-96.5268631	-77.72162628	1.0
32	0.9094099998	0	0	81.67066193	-99.07848358	-77.72991943	1.0
33	0.9094099998	0	0	84.9870224	-100.3627853	-79.75180054	1.0
[LeftLeg]
30	0	0	-4.498080254	50.89152145	-84.81218719	-47.95019531	1.0
31	0	0	-4.498080254	44.36281967	-84.50244141	-42.25572968	1.0
32	0	0	-4.498080254	65.25655365	-81.68848419	-63.36911011	1.0
33	0	0	-4.498080254	62.52822113	-83.85044861	-62.05622864	1.0
[LeftFoot]
30	0	0	-3.729400158	-51.20947266	-20.2709198	100.2797546	1.0
31	0	0	-3.729400158	-49.53469086	-19.42630577	100.2139359	1.0
32	0	0	-3.729400158	-50.16973114	-18.70341682	100.8962402	1.0
33	0	0	-3.729400158	-51.5674057	-20.54146385	98.13757324	1.0
[LeftToeBase]
30	0	-1.364109993	-0.5911099911	-1.999999995e-006	0	-1.999999995e-006	1.0
31	0	-1.364109993	-0.5911099911	-1.999999995e-006	0	-1.999999995e-006	1.0
32	0	-1.364109993	-0.5911099911	-1.999999995e-006	0	-1.999999995e-006	1.0
33	0	-1.364109993	-0.5911099911	-1.999999995e-006	0	-1.999999995e-006	1.0
[RightUpLeg]
30	-0.9094099998	0	0	-72.33303833	-101.227829	75.85469818	1.0
31	-0.9094099998	0	0	-75.04237366	-101.2935257	78.5188446	1.0
32	-0.9094099998	0	0	-75.50224304	-100.6649475	78.7040863	1.0
33	-0.9094099998	0	0	-72.35995483	-103.3008041	75.96253967	1.0
[RightLeg]
30	0	0	-4.498080254	-81.63832092	-102.3909073	76.92034912	1.0
31	0	0	-4.498080254	-76.26260376	-97.67977905	73.83465576	1.0
32	0	0	-4.498080254	-73.13955688	-94.43798828	73.60605621	1.0
33	0	0	-4.498080254	-98.54978943	-94.80311584	99.56860352	1.0
[RightFoot]
30	0	0	-3.729400158	-37.16350555	-23.87977791	91.67068481	1.0
31	0	0	-3.729400158	-36.68054962	-26.60562134	91.77056122	1.0
32	0	0	-3.729400158	-37.97296906	-27.06841469	89.60075378	1.0
33	0	0	-3.729400158	-42.38350677	-25.98335838	91.13818359	1.0
[RightToeBase]
30	0	-1.364109993	-0.5911099911	1.999999995e-006	9.999999975e-007	1.999999995e-006	1.0
31	0	-1.364109993	-0.5911099911	1.999999995e-006	9.999999975e-007	1.999999995e-006	1.0
32	0	-1.364109993	-0.5911099911	1.999999995e-006	9.999999975e-007	1.999999995e-006	1.0
33	0	-1.364109993	-0.5911099911	1.999999995e-006	9.999999975e-007	1.999999995e-006	1.0
[EndOfFile]
